<svg width="36" height="36" viewBox="0 0 36 36" fill="none" xmlns="http://www.w3.org/2000/svg">
<g clip-path="url(#clip0_930_835)">
<g clip-path="url(#clip1_930_835)">
<path d="M0 18C0 8.059 8.059 0 18 0C27.941 0 36 8.059 36 18C36 27.941 27.941 36 18 36C8.059 36 0 27.941 0 18Z" fill="#FFEDB4"/>
<path d="M18.8136 9.42022C18.6596 9.20322 18.4086 9.07422 18.1416 9.07422C17.8746 9.07422 17.6246 9.20222 17.4686 9.42022C15.8066 11.7402 11.6406 17.8432 11.6406 20.7182C11.6406 24.3082 14.5506 27.2192 18.1416 27.2192C21.7326 27.2192 24.6426 24.3082 24.6426 20.7182C24.6436 17.8432 20.4766 11.7402 18.8136 9.42022ZM15.8586 24.3982C15.6816 24.6092 15.4256 24.7192 15.1676 24.7192C14.9636 24.7192 14.7566 24.6492 14.5876 24.5072C12.0236 22.3482 12.9086 19.1602 12.9476 19.0242C13.0866 18.5452 13.5826 18.2702 14.0646 18.4072C14.5426 18.5442 14.8186 19.0432 14.6826 19.5212C14.6556 19.6242 14.1016 21.7372 15.7516 23.1262C16.1316 23.4472 16.1806 24.0162 15.8586 24.3982ZM17.6336 26.1912C17.1046 26.1912 16.6746 25.7612 16.6746 25.2322C16.6746 24.7012 17.1046 24.2722 17.6336 24.2722C18.1636 24.2722 18.5926 24.7022 18.5926 25.2322C18.5926 25.7622 18.1636 26.1912 17.6336 26.1912Z" fill="#D6A500"/>
</g>
</g>
<defs>
<clipPath id="clip0_930_835">
<rect width="36" height="36" fill="white"/>
</clipPath>
<clipPath id="clip1_930_835">
<rect width="36" height="36" fill="white"/>
</clipPath>
</defs>
</svg>
