<svg xmlns="http://www.w3.org/2000/svg" xmlns:xlink="http://www.w3.org/1999/xlink" viewBox="0 0 64 64"><path d="M 0 31.261 C 0 13.996 13.996 0 31.262 0 C 48.527 0 62.523 13.996 62.523 31.261 C 62.523 48.527 48.527 62.523 31.262 62.523 C 13.996 62.523 0 48.527 0 31.261 Z" fill="rgb(219,234,254)"></path><g transform="translate(20 18)"><path d="M 0 0 L 24 0 L 24 27.428 L 0 27.428 Z" fill="transparent"></path><path d="M 15.525 2.507 C 15.723 2.025 16.195 1.714 16.714 1.714 L 22.714 1.714 C 23.427 1.714 24 2.288 24 3 L 24 9 C 24 9.52 23.689 9.991 23.207 10.189 C 22.725 10.388 22.173 10.28 21.804 9.911 L 20.014 8.121 L 17.196 10.939 C 18.241 12.461 18.857 14.298 18.857 16.286 C 18.857 21.493 14.636 25.714 9.429 25.714 C 4.221 25.714 0 21.493 0 16.286 C 0 11.079 4.221 6.857 9.429 6.857 C 11.411 6.857 13.254 7.468 14.775 8.518 L 17.593 5.7 L 15.804 3.911 C 15.434 3.541 15.327 2.989 15.525 2.507 Z M 9.429 22.286 C 10.217 22.286 10.997 22.13 11.725 21.829 C 12.453 21.527 13.114 21.085 13.671 20.528 C 14.228 19.971 14.67 19.31 14.972 18.582 C 15.273 17.854 15.429 17.074 15.429 16.286 C 15.429 15.498 15.273 14.718 14.972 13.99 C 14.67 13.262 14.228 12.6 13.671 12.043 C 13.114 11.486 12.453 11.044 11.725 10.742 C 10.997 10.441 10.217 10.286 9.429 10.286 C 8.641 10.286 7.86 10.441 7.132 10.742 C 6.405 11.044 5.743 11.486 5.186 12.043 C 4.629 12.6 4.187 13.262 3.885 13.99 C 3.584 14.718 3.429 15.498 3.429 16.286 C 3.429 17.074 3.584 17.854 3.885 18.582 C 4.187 19.31 4.629 19.971 5.186 20.528 C 5.743 21.085 6.405 21.527 7.132 21.829 C 7.86 22.13 8.641 22.286 9.429 22.286 Z" fill="rgb(37,99,235)"></path></g></svg>