<svg width="36" height="36" viewBox="0 0 36 36" fill="none" xmlns="http://www.w3.org/2000/svg">
<g clip-path="url(#clip0_929_827)">
<path d="M0 18.145C0 8.124 8.124 0 18.145 0C28.166 0 36.29 8.124 36.29 18.145C36.29 28.166 28.166 36.29 18.145 36.29C8.124 36.29 0 28.166 0 18.145Z" fill="#DCFCE7"/>
<path d="M27.2141 12.6707C27.7021 13.1587 27.7021 13.9517 27.2141 14.4407L17.2141 24.4407C16.7251 24.9287 15.9321 24.9287 15.4441 24.4407L10.4441 19.4407C9.95612 18.9517 9.95612 18.1587 10.4441 17.6707C10.9321 17.1827 11.7251 17.1827 12.2141 17.6707L16.3311 21.7837L25.4481 12.6707C25.9361 12.1827 26.7291 12.1827 27.2181 12.6707H27.2141Z" fill="#16A34A"/>
</g>
<defs>
<clipPath id="clip0_929_827">
<rect width="36" height="36" fill="white"/>
</clipPath>
</defs>
</svg>
