<svg width="36" height="36" viewBox="0 0 36 36" fill="none" xmlns="http://www.w3.org/2000/svg">
<rect width="36" height="36" rx="18" fill="#DFF7E6"/>
<g clip-path="url(#clip0_927_775)">
<g clip-path="url(#clip1_927_775)">
<path d="M10.9102 21.0268L17.9263 27.5768C18.2175 27.8481 18.6021 28.0002 19.0017 28.0002C19.4013 28.0002 19.7859 27.8481 20.0771 27.5768L27.0932 21.0268C28.273 19.9276 28.9409 18.387 28.9409 16.7759V16.5502C28.9409 13.8358 26.9799 11.522 24.3053 11.0757C22.5351 10.7805 20.7331 11.359 19.4678 12.6252L19.0017 13.0904L18.5355 12.6252C17.2703 11.359 15.4683 10.7805 13.6981 11.0757C11.0235 11.522 9.0625 13.8358 9.0625 16.5502V16.7759C9.0625 18.387 9.73041 19.9276 10.9102 21.0268Z" fill="#22C55E"/>
</g>
</g>
<defs>
<clipPath id="clip0_927_775">
<rect width="20" height="17" fill="white" transform="translate(9 11)"/>
</clipPath>
<clipPath id="clip1_927_775">
<rect width="20" height="17" fill="white" transform="translate(9 11)"/>
</clipPath>
</defs>
</svg>
