<svg xmlns="http://www.w3.org/2000/svg" xmlns:xlink="http://www.w3.org/1999/xlink" viewBox="0 0 64 64"><path d="M 0 32 C 0 14.327 14.327 0 32 0 C 49.673 0 64 14.327 64 32 C 64 49.673 49.673 64 32 64 C 14.327 64 0 49.673 0 32 Z" fill="rgb(252,231,243)"></path><g transform="translate(22.185 19.15)"><path d="M 0 0 L 20.25 0 L 20.25 27 L 0 27 Z" fill="transparent"></path><path d="M 4.219 9.281 C 4.219 8.506 4.372 7.738 4.668 7.021 C 4.965 6.304 5.4 5.653 5.949 5.105 C 6.497 4.556 7.148 4.121 7.865 3.825 C 8.581 3.528 9.349 3.375 10.125 3.375 C 10.901 3.375 11.669 3.528 12.385 3.825 C 13.102 4.121 13.753 4.556 14.301 5.105 C 14.85 5.653 15.285 6.304 15.582 7.021 C 15.878 7.738 16.031 8.506 16.031 9.281 C 16.031 10.057 15.878 10.825 15.582 11.541 C 15.285 12.258 14.85 12.909 14.301 13.458 C 13.753 14.006 13.102 14.441 12.385 14.738 C 11.669 15.035 10.901 15.187 10.125 15.187 C 9.349 15.187 8.581 15.035 7.865 14.738 C 7.148 14.441 6.497 14.006 5.949 13.458 C 5.4 12.909 4.965 12.258 4.668 11.541 C 4.372 10.825 4.219 10.057 4.219 9.281 Z M 11.813 18.41 C 16.131 17.619 19.406 13.832 19.406 9.281 C 19.406 4.155 15.251 0 10.125 0 C 4.999 0 0.844 4.155 0.844 9.281 C 0.844 13.832 4.119 17.619 8.437 18.41 L 8.437 20.25 L 6.75 20.25 C 5.817 20.25 5.063 21.004 5.063 21.938 C 5.063 22.871 5.817 23.625 6.75 23.625 L 8.437 23.625 L 8.437 25.313 C 8.437 26.246 9.192 27 10.125 27 C 11.058 27 11.813 26.246 11.813 25.313 L 11.813 23.625 L 13.5 23.625 C 14.433 23.625 15.188 22.871 15.188 21.938 C 15.188 21.004 14.433 20.25 13.5 20.25 L 11.813 20.25 Z" fill="rgb(219,39,119)"></path></g></svg>